<?xml version="1.0" encoding="UTF-8" standalone="no"?>
<!DOCTYPE svg PUBLIC "-//W3C//DTD SVG 1.1//EN"
 "http://www.w3.org/Graphics/SVG/1.1/DTD/svg11.dtd">
<!-- Generated by graphviz version 2.40.1 (20161225.0304)
 -->
<!-- Title: SimpleApprovalWorkflow Pages: 1 -->
<svg width="367pt" height="326pt"
 viewBox="0.00 0.00 367.23 326.00" xmlns="http://www.w3.org/2000/svg" xmlns:xlink="http://www.w3.org/1999/xlink">
<g id="graph0" class="graph" transform="scale(1 1) rotate(0) translate(4 322)">
<title>SimpleApprovalWorkflow</title>
<polygon fill="#ffffff" stroke="transparent" points="-4,4 -4,-322 363.2339,-322 363.2339,4 -4,4"/>
<!-- created -->
<g id="node1" class="node">
<title>created</title>
<path fill="#eeeeee" stroke="#aaaaaa" d="M185.2339,-318C185.2339,-318 130.2339,-318 130.2339,-318 124.2339,-318 118.2339,-312 118.2339,-306 118.2339,-306 118.2339,-294 118.2339,-294 118.2339,-288 124.2339,-282 130.2339,-282 130.2339,-282 185.2339,-282 185.2339,-282 191.2339,-282 197.2339,-288 197.2339,-294 197.2339,-294 197.2339,-306 197.2339,-306 197.2339,-312 191.2339,-318 185.2339,-318"/>
<text text-anchor="middle" x="157.7339" y="-296.9" font-family="Helvetica,sans-Serif" font-size="12.00" fill="#000000">Created</text>
</g>
<!-- submitted -->
<g id="node3" class="node">
<title>submitted</title>
<path fill="#eeeeee" stroke="#aaaaaa" d="M218.2339,-224C218.2339,-224 97.2339,-224 97.2339,-224 91.2339,-224 85.2339,-218 85.2339,-212 85.2339,-212 85.2339,-200 85.2339,-200 85.2339,-194 91.2339,-188 97.2339,-188 97.2339,-188 218.2339,-188 218.2339,-188 224.2339,-188 230.2339,-194 230.2339,-200 230.2339,-200 230.2339,-212 230.2339,-212 230.2339,-218 224.2339,-224 218.2339,-224"/>
<text text-anchor="middle" x="157.7339" y="-202.9" font-family="Helvetica,sans-Serif" font-size="12.00" fill="#000000">Waiting for Approval</text>
</g>
<!-- created&#45;&gt;submitted -->
<g id="edge1" class="edge">
<title>created&#45;&gt;submitted</title>
<path fill="none" stroke="#31cef0" d="M157.7339,-281.8759C157.7339,-266.9211 157.7339,-245.5983 157.7339,-229.3629"/>
<polygon fill="#31cef0" stroke="#31cef0" points="157.7339,-224.0685 159.984,-229.0685 157.734,-226.5685 157.734,-229.0685 157.734,-229.0685 157.734,-229.0685 157.734,-226.5685 155.484,-229.0685 157.7339,-224.0685 157.7339,-224.0685"/>
<text text-anchor="middle" x="121.2339" y="-256.0673" font-family="Helvetica,sans-Serif" font-size="10.00" fill="#000000">request approval</text>
</g>
<!-- inprocess -->
<g id="node2" class="node">
<title>inprocess</title>
<path fill="#eeeeee" stroke="#aaaaaa" d="M192.2339,-36C192.2339,-36 123.2339,-36 123.2339,-36 117.2339,-36 111.2339,-30 111.2339,-24 111.2339,-24 111.2339,-12 111.2339,-12 111.2339,-6 117.2339,0 123.2339,0 123.2339,0 192.2339,0 192.2339,0 198.2339,0 204.2339,-6 204.2339,-12 204.2339,-12 204.2339,-24 204.2339,-24 204.2339,-30 198.2339,-36 192.2339,-36"/>
<text text-anchor="middle" x="157.7339" y="-14.9" font-family="Helvetica,sans-Serif" font-size="12.00" fill="#000000">In Process</text>
</g>
<!-- inprocess&#45;&gt;submitted -->
<g id="edge2" class="edge">
<title>inprocess&#45;&gt;submitted</title>
<path fill="none" stroke="#31cef0" d="M129.0593,-36.072C110.5954,-49.5204 88.1631,-69.7073 77.7339,-94 71.422,-108.7024 71.422,-115.2976 77.7339,-130 87.3483,-152.3949 107.1636,-171.3003 124.6668,-184.6539"/>
<polygon fill="#31cef0" stroke="#31cef0" points="129.0593,-187.928 123.7058,-186.7439 127.0549,-186.4339 125.0504,-184.9399 125.0504,-184.9399 125.0504,-184.9399 127.0549,-186.4339 126.3951,-183.1358 129.0593,-187.928 129.0593,-187.928"/>
<text text-anchor="middle" x="36.5" y="-115" font-family="Helvetica,sans-Serif" font-size="10.00" fill="#000000">request approval</text>
</g>
<!-- approved -->
<g id="node4" class="node">
<title>approved</title>
<path fill="#eeeeee" stroke="#aaaaaa" d="M189.7339,-130C189.7339,-130 125.7339,-130 125.7339,-130 119.7339,-130 113.7339,-124 113.7339,-118 113.7339,-118 113.7339,-106 113.7339,-106 113.7339,-100 119.7339,-94 125.7339,-94 125.7339,-94 189.7339,-94 189.7339,-94 195.7339,-94 201.7339,-100 201.7339,-106 201.7339,-106 201.7339,-118 201.7339,-118 201.7339,-124 195.7339,-130 189.7339,-130"/>
<text text-anchor="middle" x="157.7339" y="-108.9" font-family="Helvetica,sans-Serif" font-size="12.00" fill="#000000">Approved</text>
</g>
<!-- submitted&#45;&gt;approved -->
<g id="edge3" class="edge">
<title>submitted&#45;&gt;approved</title>
<path fill="none" stroke="#31cef0" d="M157.7339,-187.8759C157.7339,-172.9211 157.7339,-151.5983 157.7339,-135.3629"/>
<polygon fill="#31cef0" stroke="#31cef0" points="157.7339,-130.0685 159.984,-135.0685 157.734,-132.5685 157.734,-135.0685 157.734,-135.0685 157.734,-135.0685 157.734,-132.5685 155.484,-135.0685 157.7339,-130.0685 157.7339,-130.0685"/>
<text text-anchor="middle" x="140.2339" y="-162.0673" font-family="Helvetica,sans-Serif" font-size="10.00" fill="#000000">approve</text>
</g>
<!-- rejected -->
<g id="node5" class="node">
<title>rejected</title>
<path fill="#eeeeee" stroke="#aaaaaa" d="M347.2339,-130C347.2339,-130 286.2339,-130 286.2339,-130 280.2339,-130 274.2339,-124 274.2339,-118 274.2339,-118 274.2339,-106 274.2339,-106 274.2339,-100 280.2339,-94 286.2339,-94 286.2339,-94 347.2339,-94 347.2339,-94 353.2339,-94 359.2339,-100 359.2339,-106 359.2339,-106 359.2339,-118 359.2339,-118 359.2339,-124 353.2339,-130 347.2339,-130"/>
<text text-anchor="middle" x="316.7339" y="-108.9" font-family="Helvetica,sans-Serif" font-size="12.00" fill="#000000">Rejected</text>
</g>
<!-- submitted&#45;&gt;rejected -->
<g id="edge4" class="edge">
<title>submitted&#45;&gt;rejected</title>
<path fill="none" stroke="#31cef0" d="M188.3907,-187.8759C215.1163,-172.0759 253.8653,-149.1676 281.7865,-132.6607"/>
<polygon fill="#31cef0" stroke="#31cef0" points="286.1712,-130.0685 283.0122,-134.55 284.0192,-131.3408 281.8671,-132.6131 281.8671,-132.6131 281.8671,-132.6131 284.0192,-131.3408 280.7221,-130.6763 286.1712,-130.0685 286.1712,-130.0685"/>
<text text-anchor="middle" x="224.8511" y="-161.9307" font-family="Helvetica,sans-Serif" font-size="10.00" fill="#000000">reject</text>
</g>
<!-- approved&#45;&gt;inprocess -->
<g id="edge5" class="edge">
<title>approved&#45;&gt;inprocess</title>
<path fill="none" stroke="#31cef0" d="M157.7339,-93.8759C157.7339,-78.9211 157.7339,-57.5983 157.7339,-41.3629"/>
<polygon fill="#31cef0" stroke="#31cef0" points="157.7339,-36.0685 159.984,-41.0685 157.734,-38.5685 157.734,-41.0685 157.734,-41.0685 157.734,-41.0685 157.734,-38.5685 155.484,-41.0685 157.7339,-36.0685 157.7339,-36.0685"/>
<text text-anchor="middle" x="129.2339" y="-68.0673" font-family="Helvetica,sans-Serif" font-size="10.00" fill="#000000">start revision</text>
</g>
<!-- rejected&#45;&gt;inprocess -->
<g id="edge6" class="edge">
<title>rejected&#45;&gt;inprocess</title>
<path fill="none" stroke="#31cef0" d="M286.0771,-93.8759C259.3516,-78.0759 220.6025,-55.1676 192.6813,-38.6607"/>
<polygon fill="#31cef0" stroke="#31cef0" points="188.2966,-36.0685 193.7458,-36.6763 190.4487,-37.3408 192.6007,-38.6131 192.6007,-38.6131 192.6007,-38.6131 190.4487,-37.3408 191.4556,-40.55 188.2966,-36.0685 188.2966,-36.0685"/>
<text text-anchor="middle" x="220.6167" y="-67.9307" font-family="Helvetica,sans-Serif" font-size="10.00" fill="#000000">resume</text>
</g>
</g>
</svg>
