<?xml version="1.0" encoding="UTF-8" standalone="no"?>
<!DOCTYPE svg PUBLIC "-//W3C//DTD SVG 1.1//EN"
 "http://www.w3.org/Graphics/SVG/1.1/DTD/svg11.dtd">
<!-- Generated by graphviz version 2.43.0 (0)
 -->
<!-- Title: SimpleApprovalWorkflow Pages: 1 -->
<svg width="317pt" height="326pt"
 viewBox="0.00 0.00 316.56 326.00" xmlns="http://www.w3.org/2000/svg" xmlns:xlink="http://www.w3.org/1999/xlink">
<g id="graph0" class="graph" transform="scale(1 1) rotate(0) translate(4 322)">
<title>SimpleApprovalWorkflow</title>
<!-- created -->
<g id="node1" class="node">
<title>created</title>
<path fill="#ffb3b2" stroke="#aaaaaa" stroke-width="0" d="M170.56,-318C170.56,-318 115.56,-318 115.56,-318 109.56,-318 103.56,-312 103.56,-306 103.56,-306 103.56,-294 103.56,-294 103.56,-288 109.56,-282 115.56,-282 115.56,-282 170.56,-282 170.56,-282 176.56,-282 182.56,-288 182.56,-294 182.56,-294 182.56,-306 182.56,-306 182.56,-312 176.56,-318 170.56,-318"/>
<text text-anchor="middle" x="143.06" y="-296.9" font-family="Helvetica,sans-Serif" font-size="12.00">Created</text>
</g>
<!-- submitted -->
<g id="node3" class="node">
<title>submitted</title>
<path fill="#eeeeee" stroke="#aaaaaa" d="M203.06,-224C203.06,-224 83.06,-224 83.06,-224 77.06,-224 71.06,-218 71.06,-212 71.06,-212 71.06,-200 71.06,-200 71.06,-194 77.06,-188 83.06,-188 83.06,-188 203.06,-188 203.06,-188 209.06,-188 215.06,-194 215.06,-200 215.06,-200 215.06,-212 215.06,-212 215.06,-218 209.06,-224 203.06,-224"/>
<text text-anchor="middle" x="143.06" y="-202.9" font-family="Helvetica,sans-Serif" font-size="12.00">Waiting for Approval</text>
</g>
<!-- created&#45;&gt;submitted -->
<g id="edge1" class="edge">
<title>created&#45;&gt;submitted</title>
<path fill="none" stroke="#31cef0" stroke-width="2" d="M143.06,-281.7C143.06,-266.92 143.06,-245.56 143.06,-229.47"/>
<polygon fill="#31cef0" stroke="#31cef0" stroke-width="2" points="143.06,-224.23 145.31,-229.23 143.56,-226.73 143.56,-229.23 143.06,-229.23 142.56,-229.23 142.56,-226.73 140.81,-229.23 143.06,-224.23 143.06,-224.23"/>
<text text-anchor="middle" x="104.56" y="-256.05" font-family="Helvetica,sans-Serif" font-size="10.00">Request approval</text>
</g>
<!-- inprogress -->
<g id="node2" class="node">
<title>inprogress</title>
<path fill="#eeeeee" stroke="#aaaaaa" d="M179.56,-36C179.56,-36 106.56,-36 106.56,-36 100.56,-36 94.56,-30 94.56,-24 94.56,-24 94.56,-12 94.56,-12 94.56,-6 100.56,0 106.56,0 106.56,0 179.56,0 179.56,0 185.56,0 191.56,-6 191.56,-12 191.56,-12 191.56,-24 191.56,-24 191.56,-30 185.56,-36 179.56,-36"/>
<text text-anchor="middle" x="143.06" y="-14.9" font-family="Helvetica,sans-Serif" font-size="12.00">In Progress</text>
</g>
<!-- inprogress&#45;&gt;submitted -->
<g id="edge2" class="edge">
<title>inprogress&#45;&gt;submitted</title>
<path fill="none" stroke="#31cef0" stroke-width="2" d="M122.88,-36.07C108.15,-49.95 89.36,-70.95 81.06,-94 75.65,-109.06 75.65,-114.94 81.06,-130 88.64,-151.07 104.99,-170.42 119,-184.19"/>
<polygon fill="#31cef0" stroke="#31cef0" stroke-width="2" points="122.88,-187.93 117.72,-186.08 120.73,-186.55 118.93,-184.82 119.28,-184.46 119.62,-184.1 121.43,-185.83 120.84,-182.84 122.88,-187.93 122.88,-187.93"/>
<text text-anchor="middle" x="38.5" y="-115" font-family="Helvetica,sans-Serif" font-size="10.00">Request approval</text>
</g>
<!-- approved -->
<g id="node4" class="node">
<title>approved</title>
<path fill="#eeeeee" stroke="#aaaaaa" d="M175.06,-130C175.06,-130 111.06,-130 111.06,-130 105.06,-130 99.06,-124 99.06,-118 99.06,-118 99.06,-106 99.06,-106 99.06,-100 105.06,-94 111.06,-94 111.06,-94 175.06,-94 175.06,-94 181.06,-94 187.06,-100 187.06,-106 187.06,-106 187.06,-118 187.06,-118 187.06,-124 181.06,-130 175.06,-130"/>
<text text-anchor="middle" x="143.06" y="-108.9" font-family="Helvetica,sans-Serif" font-size="12.00">Approved</text>
</g>
<!-- submitted&#45;&gt;approved -->
<g id="edge3" class="edge">
<title>submitted&#45;&gt;approved</title>
<path fill="none" stroke="#31cef0" stroke-width="2" d="M143.06,-187.7C143.06,-172.92 143.06,-151.56 143.06,-135.47"/>
<polygon fill="#31cef0" stroke="#31cef0" stroke-width="2" points="143.06,-130.23 145.31,-135.23 143.56,-132.73 143.56,-135.23 143.06,-135.23 142.56,-135.23 142.56,-132.73 140.81,-135.23 143.06,-130.23 143.06,-130.23"/>
<text text-anchor="middle" x="124.56" y="-162.05" font-family="Helvetica,sans-Serif" font-size="10.00">Approve</text>
</g>
<!-- rejected -->
<g id="node5" class="node">
<title>rejected</title>
<path fill="#eeeeee" stroke="#aaaaaa" d="M296.56,-130C296.56,-130 235.56,-130 235.56,-130 229.56,-130 223.56,-124 223.56,-118 223.56,-118 223.56,-106 223.56,-106 223.56,-100 229.56,-94 235.56,-94 235.56,-94 296.56,-94 296.56,-94 302.56,-94 308.56,-100 308.56,-106 308.56,-106 308.56,-118 308.56,-118 308.56,-124 302.56,-130 296.56,-130"/>
<text text-anchor="middle" x="266.06" y="-108.9" font-family="Helvetica,sans-Serif" font-size="12.00">Rejected</text>
</g>
<!-- submitted&#45;&gt;rejected -->
<g id="edge4" class="edge">
<title>submitted&#45;&gt;rejected</title>
<path fill="none" stroke="#31cef0" d="M165.91,-187.91C186.49,-172.52 216.79,-149.86 238.66,-133.49"/>
<polygon fill="#31cef0" stroke="#31cef0" points="242.92,-130.31 240.26,-135.11 240.92,-131.81 238.92,-133.3 238.92,-133.3 238.92,-133.3 240.92,-131.81 237.57,-131.5 242.92,-130.31 242.92,-130.31"/>
<text text-anchor="middle" x="190.02" y="-162.03" font-family="Helvetica,sans-Serif" font-size="10.00">Reject</text>
</g>
<!-- approved&#45;&gt;inprogress -->
<g id="edge5" class="edge">
<title>approved&#45;&gt;inprogress</title>
<path fill="none" stroke="#31cef0" stroke-width="2" d="M143.06,-93.7C143.06,-78.92 143.06,-57.56 143.06,-41.47"/>
<polygon fill="#31cef0" stroke="#31cef0" stroke-width="2" points="143.06,-36.23 145.31,-41.23 143.56,-38.73 143.56,-41.23 143.06,-41.23 142.56,-41.23 142.56,-38.73 140.81,-41.23 143.06,-36.23 143.06,-36.23"/>
<text text-anchor="middle" x="114.06" y="-68.05" font-family="Helvetica,sans-Serif" font-size="10.00">Start revision</text>
</g>
<!-- rejected&#45;&gt;inprogress -->
<g id="edge6" class="edge">
<title>rejected&#45;&gt;inprogress</title>
<path fill="none" stroke="#31cef0" d="M243.22,-93.91C222.63,-78.52 192.34,-55.86 170.46,-39.49"/>
<polygon fill="#31cef0" stroke="#31cef0" points="166.2,-36.31 171.56,-37.5 168.21,-37.81 170.21,-39.3 170.21,-39.3 170.21,-39.3 168.21,-37.81 168.86,-41.11 166.2,-36.31 166.2,-36.31"/>
<text text-anchor="middle" x="186.11" y="-68.03" font-family="Helvetica,sans-Serif" font-size="10.00">Resume</text>
</g>
</g>
</svg>
